<svg t="1635141836567" class="icon" viewBox="0 0 1024 1024" version="1.1" xmlns="http://www.w3.org/2000/svg" p-id="8872"
    width="22" height="22">
    <path
        d="M280.571429 877.714286l52-52-134.285714-134.285714-52 52 0 61.142857 73.142857 0 0 73.142857 61.142857 0zm298.857143-530.285714q0-12.571429-12.571429-12.571429-5.714286 0-9.714286 4l-309.714286 309.714286q-4 4-4 9.714286 0 12.571429 12.571429 12.571429 5.714286 0 9.714286-4l309.714286-309.714286q4-4 4-9.714286zm-30.857143-109.714286l237.714286 237.714286-475.428571 475.428571-237.714286 0 0-237.714286zm390.285714 54.857143q0 30.285714-21.142857 51.428571l-94.857143 94.857143-237.714286-237.714286 94.857143-94.285714q20.571429-21.714286 51.428571-21.714286 30.285714 0 52 21.714286l134.285714 133.714286q21.142857 22.285714 21.142857 52z"
        p-id="8873" fill="#707070"></path>
</svg>